<svg width="1561" height="488" viewBox="0 0 1561 488" fill="none" xmlns="http://www.w3.org/2000/svg">
<path d="M0.504426 478V9.95445H306.034V92.5125H88.913V192.622H267.03V275.18H88.913V395.442H306.034V478H0.504426ZM409.943 478L552.957 9.95445H684.919L827.933 478H736.924L609.512 65.2098H626.414L500.952 478H409.943ZM495.751 380.491V297.932H742.775V380.491H495.751ZM951.196 478V9.95445H1039.61V478H951.196ZM1372.37 487.751C1337.7 487.751 1306.39 481.684 1278.44 469.549C1250.7 457.198 1227.84 439.646 1209.86 416.894C1192.09 393.925 1180.82 366.622 1176.05 334.986L1268.36 321.335C1274.86 348.204 1288.3 368.898 1308.67 383.416C1329.03 397.934 1352.22 405.193 1378.22 405.193C1392.74 405.193 1406.82 402.918 1420.48 398.367C1434.13 393.817 1445.29 387.099 1453.95 378.215C1462.84 369.331 1467.28 358.388 1467.28 345.387C1467.28 340.62 1466.52 336.07 1465.01 331.736C1463.71 327.185 1461.43 322.96 1458.18 319.06C1454.93 315.159 1450.27 311.475 1444.2 308.008C1438.35 304.541 1430.88 301.399 1421.78 298.583L1300.21 262.829C1291.11 260.229 1280.5 256.545 1268.36 251.778C1256.44 247.011 1244.85 240.185 1233.58 231.301C1222.32 222.417 1212.89 210.716 1205.31 196.198C1197.94 181.463 1194.25 162.936 1194.25 140.617C1194.25 109.197 1202.16 83.0866 1217.98 62.2845C1233.8 41.4825 1254.93 25.9893 1281.36 15.805C1307.8 5.62069 1337.05 0.636872 1369.12 0.85357C1401.41 1.28694 1430.23 6.81248 1455.58 17.4302C1480.93 28.0479 1502.17 43.5411 1519.29 63.9097C1536.4 84.0617 1548.76 108.764 1556.34 138.017L1460.78 154.268C1457.31 139.1 1450.92 126.316 1441.6 115.915C1432.29 105.514 1421.13 97.6046 1408.12 92.1875C1395.34 86.7703 1381.91 83.845 1367.82 83.4116C1353.95 82.9782 1340.84 84.9284 1328.49 89.2622C1316.36 93.3792 1306.39 99.4465 1298.59 107.464C1291.01 115.481 1287.21 125.016 1287.21 136.067C1287.21 146.251 1290.36 154.594 1296.64 161.094C1302.92 167.378 1310.83 172.47 1320.37 176.371C1329.9 180.271 1339.65 183.521 1349.62 186.122L1430.88 208.224C1443.01 211.474 1456.45 215.808 1471.18 221.225C1485.92 226.426 1500 233.793 1513.44 243.327C1527.09 252.645 1538.25 264.996 1546.91 280.381C1555.8 295.766 1560.24 315.268 1560.24 338.886C1560.24 364.022 1554.93 386.016 1544.31 404.868C1533.91 423.503 1519.83 438.996 1502.06 451.347C1484.29 463.482 1464.14 472.583 1441.6 478.65C1419.28 484.717 1396.21 487.751 1372.37 487.751Z" fill="#3B7559"/>
</svg>
